# xmcd
#
# Track frame offsets:
# 150
# 12215
# 29532
# 45052
# 58047
# 68235
# 80895
# 92912
# 103377
# 118160
# 134025
# 148682
# 163742
# 176462
# 187977
# 203020
#
# Disc length: 2882 seconds
#
#
# Revision: 0
# Processed by: cddbd v1.5.2PL0 Copyright (c) Steve Scherf et al.
# Submitted via: FreeRIP 2.951 
#
DISCID=e70b4010
DTITLE=WZANETTI - OS GIGANTES DA VIOLA VOL.1
DYEAR=1995
DGENRE=FORRÓ
TTITLE0=A_ Mulher_e_o_Trem
TTITLE1=Mula_Boia
TTITLE2=Casamento_da_Onça
TTITLE3=Marica_Criolina
TTITLE4=De_ Vencida_A_Vencedor
TTITLE5=Passos_da_Vida
TTITLE6=Hoje_e_Meu_ Aniversario
TTITLE7=Primeiro_Trofeu
TTITLE8=Carneiro
TTITLE9=A_morte_do_Carneiro
TTITLE10=Duas_Cartas
TTITLE11=Saudades_de_Araraguara
TTITLE12=Sepultura_larga
TTITLE13=Tenho_Fome_Tenho_Sede
TTITLE14=O_Peão_e_Ricaço
TTITLE15=Viola_Sentida
EXTD=CD ADQUIRIDO EM BH GRAVADO NOS ESTUDIOS SONARSOM/12/2006BYWZ
EXTT0=RAUL_TORRES_E_FLORENCIO
EXTT1=RAUL_TORRES_E_FLORENCIO
EXTT2=RAUL_TORRES_E_FLORENCIO
EXTT3=RAUL_TORRES_E_FLORENCIO
EXTT4=TONICO_E_TINOCO
EXTT5=TONICO_E_TINOCO
EXTT6=TONICO_E_TINOCO
EXTT7=TONICO_E_TINOCO
EXTT8=ZÉ_CARREIRO_E_CARREIRINHO
EXTT9=ZÉ_CARREIRO_E_CARREIRINHO
EXTT10=ZÉ_CARREIRO_E_CARREIRINHO
EXTT11=ZÉ_CARREIRO_E_CARREIRINHO
EXTT12=SULINO_E_MARRUEIRO
EXTT13=SULINO_E_MARRUEIRO
EXTT14=SULINO_E_MARRUEIRO
EXTT15=SULINO_E_MARRUEIRO
PLAYORDER=
